# xmcd
#
# Track frame offsets:
#	150
#	6086
#	15841
#	26867
#	36024
#	40639
#	50536
#	64601
#	76439
#	89652
#	101043
#	109409
#	118351
#	128900
#
# Disc length: 1906 seconds
#
# Revision: 1
# Processed by: cddbd v1.5.1PL0 Copyright (c) Steve Scherf et al.
# Submitted via: CDex 1.50Beta5
#
DISCID=b607700e
DTITLE=サウンドトラック - world wrestling theme library 2
DYEAR=1900
DGENRE=Other
TTITLE0=ALSO SPRACH ZARATHUSTRA
TTITLE1=ROCKHOUSE
TTITLE2=RAP SHEET
TTITLE3=SLAMMER
TTITLE4=SKANK
TTITLE5=TOKYO TAKEAWAY
TTITLE6=DESTROYER
TTITLE7=ONE CRAZED ANARCHIST
TTITLE8=MARCH OF DEATH
TTITLE9=BLACK KNIGHT
TTITLE10=TOKYO TOWN
TTITLE11=PARENTAL ADVISORY:EXPLICHT ACTS
TTITLE12=AVALANCE(b)
TTITLE13=UNIVERSAL LOVE
EXTD=
EXTT0=
EXTT1=
EXTT2=
EXTT3=
EXTT4=
EXTT5=
EXTT6=
EXTT7=
EXTT8=
EXTT9=
EXTT10=
EXTT11=
EXTT12=
EXTT13=
PLAYORDER=
